<?xml version="1.0" standalone="no"?>
<!DOCTYPE svg PUBLIC "-//W3C//DTD SVG 20010904//EN" "http://www.w3.org/TR/2001/REC-SVG-20010904/DTD/svg10.dtd">
<svg version="1.0" xmlns="http://www.w3.org/2000/svg"
    width="300.000000pt" height="300.000000pt" viewBox="0 0 300.000000 300.000000"
    preserveAspectRatio="xMidYMid meet">
    <metadata> Created by potrace 1.10, written by Peter Selinger 2001-2011 </metadata>
    <g transform="translate(0.000000,300.000000) scale(0.100000,-0.100000)"
        fill="#000000" stroke="none">
        <path
            d="M790 2152 c-43 -43 -55 -101 -41 -197 6 -44 23 -111 37 -150 15 -38
31 -89 37 -113 10 -39 8 -45 -19 -81 -101 -132 -154 -206 -154 -213 0 -4 14
-8 31 -8 34 0 146 46 411 169 197 92 235 102 274 76 47 -31 78 -130 54 -174
-17 -33 -40 -32 -98 1 -91 52 -97 50 -427 -111 -159 -78 -295 -149 -302 -158
-9 -11 -9 -21 -2 -35 12 -22 431 -234 540 -273 42 -15 86 -25 99 -23 21 3 21
4 -10 47 -37 51 -48 107 -30 151 17 42 97 110 127 110 51 0 110 -102 73 -125
-15 -9 -50 -81 -50 -103 0 -55 103 -85 213 -62 46 9 57 16 67 39 12 30 7 45
-40 130 -17 31 -17 37 -5 62 18 34 52 59 81 59 12 0 43 -22 72 -51 75 -75 79
-131 18 -212 -15 -19 -26 -37 -26 -40 0 -13 47 -7 102 12 64 22 428 198 505
244 92 55 89 58 -194 198 -137 67 -279 135 -316 151 -79 34 -104 32 -179 -14
-46 -29 -50 -29 -73 -14 -47 31 -29 138 31 185 47 37 54 35 369 -111 263 -122
345 -149 345 -114 0 8 -27 50 -60 93 -115 149 -115 148 -103 201 6 26 23 81
39 122 36 98 45 238 19 294 -18 38 -58 66 -95 66 -39 0 -96 -38 -163 -109
l-67 -71 -397 0 -398 0 -62 69 c-98 108 -179 137 -233 83z m488 -748 c29 -20
31 -85 2 -114 -30 -30 -83 -27 -109 6 -28 35 -26 69 4 99 28 29 70 32 103 9z
m517 -9 c49 -49 16 -125 -55 -125 -44 0 -80 35 -80 77 0 34 42 73 80 73 19 0
40 -9 55 -25z" />
    </g>
</svg>