<svg version="1.0" xmlns="http://www.w3.org/2000/svg" width="1350.000000pt" height="1350.000000pt"
    viewBox="0 0 1350.000000 1350.000000" preserveAspectRatio="xMidYMid meet">
    <g transform="translate(0.000000,1350.000000) scale(0.100000,-0.100000)" fill="#ffffff"
        stroke="none">
        <path
            d="M5929 10854 c-6 -8 -11 -624 -12 -1635 -1 -1187 -5 -1623 -13 -1626 -6 -2 -64 49 -128 114 l-116 118 0 580 0 580 -624 624 c-546 546 -626 622 -642 613 -27 -15 -1144 -1135 -1144 -1147 0 -6 519 -530 1154 -1164 635 -635 1153 -1158 1150 -1163 -3 -4 -82 -8 -176 -8 l-170 0 -372 372 c-204 204 -390 388 -412 410 l-41 38 -873 0 c-481 0 -877 -3 -882 -8 -11 -11 -12 -1612 0 -1624 5 -5 728 -9 1632 -11 1218 -1 1624 -5 1627 -14 2 -6 -49 -63 -114 -127 l-118 -116 -580 0 -580 0 -624 -624 c-546 -546 -622 -626 -613 -642 15 -27 1135 -1144 1147 -1144 6 0 530 519 1164 1154 635 635 1158 1153 1163 1150 4 -3 8 -82 8 -176 l0 -170 -372 -372 c-204 -204 -388 -390 -410 -412 l-38 -41 0 -873 c0 -481 3 -877 8 -882 11 -11 1612 -12 1624 0 5 5 9 701 11 1633 2 1333 4 1624 15 1624 7 0 65 -52 128 -115 l114 -115 0 -580 0 -580 624 -624 c546 -546 626 -622 642 -613 27 15 1144 1135 1144 1147 0 6 -519 530 -1154 1164 -635 635 -1153 1158 -1150 1163 3 4 82 8 176 8 l170 0 372 -372 c204 -204 390 -389 412 -410 l41 -38 873 0 c481 0 877 3 882 8 11 11 11 1613 0 1624 -5 5 -739 9 -1632 11 -1218 1 -1624 5 -1627 14 -2 6 49 63 114 127 l118 116 580 0 580 0 624 624 c546 546 622 626 613 642 -15 27 -1135 1144 -1147 1144 -6 0 -530 -519 -1164 -1154 -635 -635 -1158 -1153 -1163 -1150 -4 3 -8 82 -8 176 l0 171 372 371 c204 204 389 390 410 412 l38 41 0 873 c0 481 -3 877 -8 882 -14 14 -1612 15 -1623 2z" />
    </g>
</svg> 